<svg width="50" height="51" viewBox="0 0 50 51" fill="none" xmlns="http://www.w3.org/2000/svg">
<path d="M41.6016 50.7779H8.39844C5.92149 50.7779 3.90625 48.6283 3.90625 45.9859V20.7737C3.90625 19.8532 4.60576 19.1069 5.46875 19.1069C6.33174 19.1069 7.03125 19.8532 7.03125 20.7737V45.9859C7.03125 46.7901 7.64454 47.4444 8.39844 47.4444H41.6016C42.3555 47.4444 42.9688 46.7901 42.9688 45.9859V20.7737C42.9688 19.8532 43.6683 19.1069 44.5313 19.1069C45.3943 19.1069 46.0938 19.8532 46.0938 20.7737V45.9859C46.0938 48.6282 44.0787 50.7779 41.6016 50.7779Z" fill="white"/>
<path d="M48.4375 26.6068C48.0376 26.6068 47.6378 26.4441 47.3327 26.1186L27.9002 5.3893C26.3011 3.68335 23.699 3.68335 22.0998 5.3893L2.66736 26.1187C2.0572 26.7697 1.06785 26.7697 0.457691 26.1187C-0.152564 25.4678 -0.152564 24.4124 0.457691 23.7615L19.8901 3.03205C22.7077 0.0264253 27.2924 0.0264253 30.1099 3.03205L49.5423 23.7614C50.1526 24.4124 50.1526 25.4677 49.5423 26.1186C49.2373 26.4441 48.8374 26.6068 48.4375 26.6068Z" fill="white"/>
<path d="M31.25 50.7781H18.75C17.887 50.7781 17.1875 50.0318 17.1875 49.1113V34.3186C17.1875 31.4465 19.3779 29.1099 22.0703 29.1099H27.9297C30.6221 29.1099 32.8125 31.4465 32.8125 34.3186V49.1113C32.8125 50.0318 32.113 50.7781 31.25 50.7781ZM20.3125 47.4445H29.6875V34.3186C29.6875 33.2846 28.8989 32.4434 27.9297 32.4434H22.0703C21.1011 32.4434 20.3125 33.2846 20.3125 34.3186V47.4445Z" fill="white"/>
</svg>
